<svg aria-hidden="true" style="position: absolute; width: 0; height: 0; overflow: hidden;" version="1.1" xmlns="http://www.w3.org/2000/svg" xmlns:xlink="http://www.w3.org/1999/xlink">
<defs>
<symbol id="icon-burger" viewBox="0 0 46 32">
<path fill="none" stroke="#bdbdbe" style="stroke: var(--color1, #bdbdbe)" stroke-linejoin="round" stroke-linecap="round" stroke-miterlimit="4" stroke-width="3.4286" d="M2.286 16h41.143M2.286 2.286h41.143M2.286 29.714h41.143"></path>
</symbol>
<symbol id="icon-minus" viewBox="0 0 171 32">
<path fill="none" stroke="#fefeff" style="stroke: var(--color2, #fefeff)" stroke-linejoin="round" stroke-linecap="round" stroke-miterlimit="4" stroke-width="21.3333" d="M10.667 16h149.333"></path>
</symbol>
<symbol id="icon-plus" viewBox="0 0 30 32">
<path fill="none" stroke="#fefeff" style="stroke: var(--color2, #fefeff)" stroke-linejoin="round" stroke-linecap="round" stroke-miterlimit="4" stroke-width="3.7647" d="M15.059 2.824v26.353M1.882 16h26.353"></path>
</symbol>
<symbol id="icon-wifi" viewBox="0 0 43 32">
<path fill="none" stroke="#fefeff" style="stroke: var(--color2, #fefeff)" stroke-linejoin="round" stroke-linecap="round" stroke-miterlimit="4" stroke-width="3.5556" d="M21.333 29.333h0.018M40.545 10.135c-5.061-4.638-11.806-7.468-19.212-7.468s-14.151 2.83-19.212 7.468M8.412 16.432c3.446-3.035 7.968-4.876 12.921-4.876s9.475 1.841 12.921 4.876M27.908 22.711c-1.812-1.42-4.094-2.267-6.575-2.267-2.518 0-4.832 0.873-6.657 2.332"></path>
</symbol>
<symbol id="icon-petrol" viewBox="0 0 34 32">
<path fill="none" stroke="#fefeff" style="stroke: var(--color2, #fefeff)" stroke-linejoin="round" stroke-linecap="butt" stroke-miterlimit="4" stroke-width="3.2" d="M32 30.4v-28.8h-2.4l-7.2 8h-14.4l-4.8 4.8v16h28.8z"></path>
<path fill="none" stroke="#fefeff" style="stroke: var(--color2, #fefeff)" stroke-linejoin="round" stroke-linecap="round" stroke-miterlimit="4" stroke-width="3.2" d="M8 9.6l8-8h14.4M7.2 3.2l-5.6 5.6M14.914 19.911c1.145-1.504 2.028-3.583 2.505-4.711 0.835 1.128 2.648 3.958 3.221 5.463 0.715 1.88-1.074 4.137-3.221 4.137s-3.936-3.008-2.505-4.889z"></path>
</symbol>
<symbol id="icon-headphones" viewBox="0 0 32 32">
<path fill="none" stroke="#fefeff" style="stroke: var(--color2, #fefeff)" stroke-linejoin="round" stroke-linecap="round" stroke-miterlimit="4" stroke-width="3.2" d="M30.4 25.6v-9.6c0-7.953-6.447-14.4-14.4-14.4s-14.4 6.447-14.4 14.4v9.6M5.6 30.4c-2.209 0-4-1.791-4-4v-3.2c0-2.209 1.791-4 4-4s4 1.791 4 4v3.2c0 2.209-1.791 4-4 4zM26.4 30.4c-2.209 0-4-1.791-4-4v-3.2c0-2.209 1.791-4 4-4s4 1.791 4 4v3.2c0 2.209-1.791 4-4 4z"></path>
</symbol>
<symbol id="icon-pointer" viewBox="0 0 32 32">
<path fill="none" stroke="#fefeff" style="stroke: var(--color2, #fefeff)" stroke-linejoin="round" stroke-linecap="round" stroke-miterlimit="4" stroke-width="2.9091" d="M3.51 14.174c-0.866-0.337-1.299-0.505-1.425-0.748-0.11-0.21-0.11-0.461-0-0.671 0.126-0.243 0.559-0.412 1.424-0.749l24.564-9.586c0.781-0.305 1.172-0.457 1.422-0.374 0.217 0.072 0.387 0.243 0.459 0.459 0.084 0.25-0.069 0.64-0.374 1.422l-9.586 24.564c-0.338 0.866-0.507 1.298-0.75 1.424-0.21 0.109-0.461 0.109-0.671-0-0.243-0.126-0.411-0.559-0.748-1.425l-3.823-9.83c-0.068-0.176-0.103-0.264-0.155-0.338-0.047-0.066-0.104-0.123-0.17-0.17-0.074-0.053-0.162-0.087-0.338-0.155l-9.83-3.823z"></path>
</symbol>
<symbol id="icon-globe" viewBox="0 0 32 32">
<path fill="none" stroke="#fefeff" style="stroke: var(--color2, #fefeff)" stroke-linejoin="round" stroke-linecap="round" stroke-miterlimit="4" stroke-width="2.6667" d="M20 3.277c-1.263-0.397-2.606-0.61-4-0.61-7.364 0-13.333 5.97-13.333 13.333s5.97 13.333 13.333 13.333c7.364 0 13.333-5.97 13.333-13.333 0-2.287-0.576-4.44-1.591-6.321M22.667 7.667h0.007M14 29.184l0-2.938c0-0.159 0.057-0.313 0.16-0.434l3.314-3.867c0.272-0.318 0.188-0.805-0.175-1.013l-3.808-2.176c-0.103-0.059-0.189-0.145-0.248-0.248l-2.482-4.35c-0.129-0.226-0.379-0.357-0.638-0.334l-7.37 0.656M28 8c0 2.946-2.667 5.333-5.333 8-2.667-2.667-5.333-5.054-5.333-8s2.388-5.333 5.333-5.333c2.945 0 5.333 2.388 5.333 5.333zM23 7.667c0 0.184-0.149 0.333-0.333 0.333s-0.333-0.149-0.333-0.333c0-0.184 0.149-0.333 0.333-0.333s0.333 0.149 0.333 0.333z"></path>
</symbol>
<symbol id="icon-additional_driver" viewBox="0 0 32 32">
<path fill="#fefeff" style="fill: var(--color2, #fefeff)" d="M14.032 12.257c0.516 0.104 1.026 0.155 1.527 0.155 1.758 0 3.387-0.63 4.614-1.818 1.84-1.779 2.414-4.397 1.463-6.668-0.795-1.9-2.652-3.351-4.846-3.789-2.033-0.405-4.083 0.1-5.626 1.386-1.937 1.616-2.694 4.203-1.927 6.592 0.693 2.158 2.44 3.667 4.795 4.142h0.001zM11.689 5.879c0.108-1.413 1.116-2.715 2.51-3.241 0.432-0.163 0.873-0.244 1.311-0.244 0.765 0 1.523 0.245 2.216 0.727 1.195 0.832 1.779 2.272 1.525 3.761-0.235 1.37-1.151 2.46-2.451 2.916-1.455 0.51-2.566 0.118-3.241-0.302-1.225-0.761-1.977-2.215-1.869-3.617h-0.001z"></path>
<path fill="#fefeff" style="fill: var(--color2, #fefeff)" d="M19.758 13.757h-8.458c-3.636 0-6.594 2.967-6.594 6.614v3.152c0 0.775 0.649 1.404 1.449 1.404h1.745c0.098 2.050 1.072 3.961 2.721 5.304 1.418 1.156 3.176 1.77 4.984 1.77 0.499 0 1.002-0.047 1.502-0.142 3.46-0.658 6.009-3.533 6.213-6.929 0.069-0.002 0.141-0.002 0.212-0.002h0.139c0.074 0 0.15 0.001 0.226 0.003 0.049 0.001 0.098 0.001 0.148 0.002 0-0.001-0.001-0.003-0.002-0.005h0.858c0.801 0 1.449-0.628 1.449-1.404v-3.152c0-3.646-2.958-6.613-6.594-6.613v-0.001zM9.073 20.522c-0.344 0.533-0.566 1.054-0.783 1.597h-0.685v-1.749c0-2.099 1.658-3.806 3.695-3.806h8.458c2.038 0 3.695 1.707 3.695 3.806v1.749h-0.549c-0.548-1.676-1.815-3.177-3.491-4.1-1.729-0.952-3.752-1.218-5.695-0.748-1.946 0.47-3.596 1.624-4.645 3.251zM20.359 23.227h-2.172c-0.485-0.936-1.464-1.524-2.586-1.524s-2.1 0.588-2.585 1.524h-2.295c0.291-1.015 0.906-1.923 1.737-2.549 1.243-0.936 2.838-1.271 4.376-0.917 1.655 0.38 3.062 1.69 3.591 3.256-0.027 0.068-0.049 0.137-0.066 0.209v0.001zM14.249 29.255c-1.717-0.49-3.076-1.82-3.535-3.463h2.284c0.285 0.59 0.796 0.976 1.251 1.239v2.224h-0.001zM15.801 24.673c-0.018 0.028-0.067 0.103-0.272 0.079-0.156-0.019-0.174-0.165-0.175-0.228 0-0.067 0.016-0.224 0.193-0.249 0.179-0.025 0.226 0.045 0.246 0.074 0.060 0.090 0.063 0.235 0.006 0.324l0.001-0.001zM16.955 29.253v-2.216c0.453-0.255 0.962-0.636 1.251-1.243h2.285c-0.456 1.634-1.815 2.963-3.536 3.46v-0.001z"></path>
</symbol>
<symbol id="icon-baby_seat" viewBox="0 0 32 32">
<path fill="#fefeff" style="fill: var(--color2, #fefeff)" d="M9.687 8.912c1.407 0 2.824-0.659 3.723-2.147 1.609-2.659-0.046-6.367-3.134-6.738-0.147-0.018-0.389-0.025-0.632-0.025-0.257 0-0.517 0.010-0.673 0.025-1.967 0.211-3.662 2.138-3.792 4.091-0.196 2.931 2.143 4.794 4.509 4.794z"></path>
<path fill="#fefeff" style="fill: var(--color2, #fefeff)" d="M23.426 18.188c-1.046 0-2.206 0.287-3.105 0.513-1.558 0.39-3.799 1.398-5.459 1.398-0.176 0-0.345-0.011-0.507-0.036-3.539-0.539-3.63-4.23-4.655-6.939-0.419-1.105-1.276-3.297-2.696-3.297-0.074 0-0.15 0.006-0.226 0.018-1.46 0.233-2.759 1.817-3.309 3.108-1.995 4.678-0.097 11.474 3.814 14.653-0.151 1.305-0.425 2.607-0.485 3.919 0.033 0.202 0.244 0.463 0.459 0.475h12.503c0.35-0.004 0.536-0.277 0.583-0.601l-0.425-3.107c0.603-0.367 1.253-0.642 1.854-1.016 2.305-1.431 4.619-3.925 4.35-6.856-0.16-1.747-1.332-2.234-2.694-2.234l-0.001 0.003zM20.439 25.112c-0.225 0.139-0.494 0.279-0.78 0.425-0.321 0.166-0.686 0.353-1.054 0.577l-1.425 0.867 0.227 1.658 0.112 0.816h-7.935c0.002-0.016 0.005-0.030 0.007-0.046 0.074-0.487 0.148-0.991 0.209-1.509l0.161-1.391-1.084-0.881c-1.475-1.199-2.666-3.183-3.268-5.444-0.603-2.263-0.535-4.533 0.188-6.228 0.223-0.525 0.606-1.008 0.929-1.303 0.152 0.278 0.351 0.708 0.603 1.376 0.183 0.486 0.344 1.055 0.513 1.657 0.352 1.253 0.752 2.675 1.546 3.92 1.067 1.671 2.609 2.673 4.585 2.973 0.282 0.042 0.581 0.064 0.887 0.064 1.529 0 3.143-0.535 4.567-1.007 0.561-0.187 1.092-0.362 1.505-0.465 0.737-0.184 1.746-0.438 2.492-0.438 0.068 0 0.127 0.003 0.176 0.006 0.098 1.714-1.633 3.422-3.164 4.372l0.002 0.001z"></path>
<path fill="#fefeff" style="fill: var(--color2, #fefeff)" d="M13.168 10.205c-0.864 0.034-1.842 0.492-2.429 1.125l-0.017 0.080c0.37 0.861 0.694 1.742 0.986 2.633 0.537 1.638 0.678 3.884 2.66 4.385 1.421 0.359 3.283-0.816 4.712-1.038l0.149-0.103-1.983-3.861 4.937-3.722c1.437-1.512 0.272-3.999-1.784-3.853-0.466 0.033-0.794 0.202-1.177 0.442-0.763 0.479-5.093 3.968-5.429 3.976-0.174 0.004-0.38-0.074-0.624-0.064h-0.001z"></path>
<path fill="#fefeff" style="fill: var(--color2, #fefeff)" d="M29.86 16.104c-0.502-0.411-0.923-0.468-1.534-0.582-1.451-0.271-3.070-0.498-4.539-0.687-0.408-0.052-0.765-0.122-1.124-0.122-0.304 0-0.611 0.051-0.949 0.206-0.863 0.396-1.18 1.35-1.616 2.124 0.775-0.061 1.553-0.316 2.339-0.399 0.303-0.031 0.611-0.050 0.919-0.050 1.64 0 3.269 0.507 3.984 2.165 0.094 0.217 0.31 1.19 0.357 1.234 0.080 0.071 0.261 0.099 0.477 0.099 0.415 0 0.962-0.103 1.168-0.198 1.497-0.68 1.799-2.739 0.518-3.79z"></path>
</symbol>
<symbol id="icon-infinity" viewBox="0 0 70 32">
<path fill="none" stroke="#fefeff" style="stroke: var(--color2, #fefeff)" stroke-linejoin="round" stroke-linecap="round" stroke-miterlimit="4" stroke-width="6.4" d="M54.969 3.2c16.307 0 16.307 25.6 0 25.6-16.304 0-22.826-25.6-40.765-25.6-14.672 0-14.672 25.6 0 25.6 17.939 0 24.461-25.6 40.768-25.6h-0.004z"></path>
</symbol>
<symbol id="icon-signin" viewBox="0 0 32 32">
<path fill="none" stroke="#bdbdbe" style="stroke: var(--color1, #bdbdbe)" stroke-linejoin="round" stroke-linecap="round" stroke-miterlimit="4" stroke-width="2.4" d="M6.4 24c0 1.488 0 2.232 0.164 2.842 0.444 1.656 1.738 2.95 3.394 3.394 0.61 0.164 1.354 0.164 2.842 0.164h9.92c2.688 0 4.032 0 5.059-0.523 0.903-0.46 1.637-1.194 2.098-2.098 0.523-1.027 0.523-2.371 0.523-5.059v-13.44c0-2.688 0-4.032-0.523-5.059-0.46-0.903-1.194-1.638-2.098-2.098-1.027-0.523-2.371-0.523-5.059-0.523h-9.92c-1.488 0-2.232 0-2.842 0.164-1.656 0.444-2.95 1.738-3.394 3.394-0.164 0.61-0.164 1.354-0.164 2.842M16 9.6l6.4 6.4M22.4 16l-6.4 6.4M22.4 16h-20.8"></path>
</symbol>
<symbol id="icon-phone" viewBox="0 0 32 32">
<path fill="none" stroke="#bdbdbe" style="stroke: var(--color1, #bdbdbe)" stroke-linejoin="round" stroke-linecap="round" stroke-miterlimit="4" stroke-width="2.2857" d="M9.722 11.967c1.061 2.209 2.506 4.279 4.337 6.11s3.901 3.277 6.11 4.337c0.19 0.091 0.285 0.137 0.405 0.172 0.427 0.125 0.952 0.035 1.314-0.224 0.102-0.073 0.189-0.16 0.363-0.334 0.533-0.533 0.799-0.799 1.067-0.973 1.010-0.657 2.312-0.657 3.322 0 0.268 0.174 0.534 0.44 1.067 0.973l0.297 0.297c0.81 0.81 1.215 1.215 1.435 1.65 0.438 0.865 0.438 1.886 0 2.751-0.22 0.435-0.625 0.84-1.435 1.65l-0.24 0.24c-0.807 0.807-1.21 1.211-1.759 1.519-0.609 0.342-1.554 0.588-2.253 0.586-0.629-0.002-1.059-0.124-1.919-0.368-4.622-1.312-8.984-3.787-12.623-7.426s-6.114-8.001-7.426-12.623c-0.244-0.86-0.366-1.29-0.368-1.919-0.002-0.698 0.244-1.644 0.586-2.253 0.308-0.549 0.712-0.952 1.519-1.759l0.24-0.24c0.81-0.81 1.215-1.215 1.65-1.435 0.865-0.437 1.886-0.437 2.751 0 0.435 0.22 0.84 0.625 1.65 1.435l0.297 0.297c0.533 0.533 0.799 0.799 0.973 1.067 0.657 1.010 0.657 2.312 0 3.322-0.174 0.268-0.441 0.534-0.973 1.067-0.174 0.174-0.261 0.261-0.334 0.363-0.259 0.362-0.348 0.886-0.224 1.314 0.035 0.12 0.081 0.215 0.172 0.405z"></path>
</symbol>
<symbol id="icon-header-arrow" viewBox="0 0 56 32">
<path fill="none" stroke="#bdbdbe" style="stroke: var(--color1, #bdbdbe)" stroke-linejoin="round" stroke-linecap="round" stroke-miterlimit="4" stroke-width="8" d="M4 4l24 24 24-24"></path>
</symbol>
<symbol id="icon-logo" viewBox="0 0 252 32">
<path fill="#fefeff" style="fill: var(--color2, #fefeff)" d="M95.584 10.331h-22.281v4.051h22.281c-0.052 0.159 0.162 0.351 0.162 0.406v6.479c0 0.016-0.226 0.244-0.242 0.244h-22.201v4.051h22.281v7.289h-29.387c0.052-0.159-0.161-0.351-0.161-0.406v-28.999c0-0.016 0.226-0.244 0.242-0.244h29.225c0.016 0 0.242 0.224 0.242 0.244v6.479c0 0.052-0.213 0.247-0.162 0.406z"></path>
<path fill="#fefeff" style="fill: var(--color2, #fefeff)" d="M247.764 3.201c1.564 0.221 3.454 2.022 3.91 3.527 0.42 1.385 0.382 8.631 0.19 10.306-0.226 1.967-2.158 4.126-4.138 4.434-0.592 0.091-1.2-0.039-1.742 0.039-0.222 0.033-0.278-0.091-0.238 0.244l5.65 11.099h-7.508l-6.298-11.339h-7.186v10.936c0 0.052-0.214 0.247-0.162 0.406h-6.944v-29.652h24.466zM244.776 10.331h-14.368v4.051h14.368v-4.051z"></path>
<path fill="#fefeff" style="fill: var(--color2, #fefeff)" d="M177.608 12.922h-6.944v-2.591h-16.307v15.228h16.307v-2.591h6.944c0.601 4.145 0.313 9.22-4.782 9.863-6.582-0.312-13.648 0.484-20.171 0.026-3.318-0.231-5.199-2.308-5.409-5.588-0.404-6.255 0.3-12.962 0.029-19.265 0.226-2.373 2.142-4.584 4.575-4.805 6.766-0.621 14.462 0.484 21.325 0 4.795 0.79 5.002 5.787 4.433 9.727v-0.003z"></path>
<path fill="#fefeff" style="fill: var(--color2, #fefeff)" d="M29.548 10.331h-22.443v4.051h22.443c-0.052 0.159 0.162 0.351 0.162 0.406v6.479c0 0.016-0.226 0.244-0.242 0.244h-22.12c-0.016 0-0.242 0.224-0.242 0.244v11.096h-6.863c-0.016 0-0.242-0.224-0.242-0.244v-29.161c0-0.016 0.226-0.244 0.242-0.244h29.225c0.016 0 0.242 0.224 0.242 0.244v6.479c0 0.052-0.213 0.247-0.162 0.406z"></path>
<path fill="#fefeff" style="fill: var(--color2, #fefeff)" d="M109.148 3.201c1.961 3.183 4.165 6.222 6.378 9.23l6.621-9.23h8.478l-10.12 14.821 10.12 14.824h-8.478l-6.621-9.392-6.62 9.392h-8.236c-0.019 0-0.323-0.234-0.165-0.322l10.068-14.633-10.145-14.691h8.721z"></path>
<path fill="#fefeff" style="fill: var(--color2, #fefeff)" d="M182.694 32.847l13.396-29.49 8.084-0.169 0.252 0.114 13.962 29.217c0.142 0.101-0.152 0.332-0.176 0.332h-7.508l-10.414-21.222-10.091 21.222-7.506-0.003z"></path>
<path fill="#fefeff" style="fill: var(--color2, #fefeff)" d="M41.496 3.201v22.357h19.619c0.016 0 0.242 0.224 0.242 0.244v6.804c0 0.016-0.226 0.244-0.242 0.244h-26.721v-29.649h7.102z"></path>
<path fill="#fefeff" style="fill: var(--color2, #fefeff)" d="M135.466 32.847v-29.646h6.863c0.016 0 0.242 0.224 0.242 0.244v29.158c0 0.016-0.226 0.244-0.242 0.244h-6.863z"></path>
</symbol>
</defs>
</svg>
